<svg id="Layer_1" enable-background="new 0 0 512.017 512.017" 
height="312" viewBox="0 0 512.017 512.017" 
width="312" xmlns="http://www.w3.org/2000/svg">
    <g>
        <path d="m149.258 61.034c-37.587 0-87.656-43.015-102.106-56.198-1.852-1.69-5.299-4.835-11.136-4.835-4.199 0-8.207 1.76-11.047 4.853-2.841 3.093-4.255 7.234-3.899 11.418l17.464 205.277h202.721v-204.058c-22.719 27.731-55.971 43.543-91.997 43.543z"/><path d="m482.324 1.399c-5.712-2.657-12.476-1.458-16.93 2.996-9.316 9.317-64.544 56.639-102.136 56.639-36.031 0-69.286-15.812-92.003-43.543v204.058h202.228l17.464-205.277c.534-6.277-2.911-12.218-8.623-14.873z"/><path d="m271.255 512.005 117.792-94.435c47.302-34.95 74.871-83.593 79.726-140.67l2.157-25.35h-199.675z"/>
        <path d="m43.243 276.899c4.868 57.227 32.445 105.876 79.749 140.687l118.263 94.431v-260.468h-200.168z"/>
    </g>
</svg>